<svg width="85" height="19" viewBox="0 0 85 19" fill="none" xmlns="http://www.w3.org/2000/svg">
<path d="M0.867898 11.2486V9.20312L10.5838 4.71449V7.2358L3.6804 10.1974L3.75852 10.0625V10.3892L3.6804 10.2543L10.5838 13.2159V15.7372L0.867898 11.2486ZM19.7156 0.772726L15.0281 18.1875H12.7766L17.4641 0.772726H19.7156ZM23.9272 1.45455V16H21.3562V1.45455H23.9272ZM33.5241 11.4119V5.09091H36.0952V16H33.6023V14.0611H33.4886C33.2424 14.6719 32.8376 15.1714 32.2741 15.5597C31.7154 15.9479 31.0265 16.142 30.2074 16.142C29.4924 16.142 28.8603 15.9834 28.3111 15.6662C27.7666 15.3442 27.3404 14.8778 27.0327 14.267C26.7249 13.6515 26.571 12.9081 26.571 12.0369V5.09091H29.142V11.6392C29.142 12.3305 29.3314 12.8797 29.7102 13.2869C30.089 13.6941 30.5862 13.8977 31.2017 13.8977C31.5805 13.8977 31.9474 13.8054 32.3026 13.6207C32.6577 13.4361 32.9489 13.1615 33.1761 12.7969C33.4081 12.4276 33.5241 11.9659 33.5241 11.4119ZM43.4975 16.2131C42.4085 16.2131 41.4734 15.974 40.6921 15.4957C39.9156 15.0175 39.3166 14.357 38.8952 13.5142C38.4786 12.6667 38.2702 11.6913 38.2702 10.5881C38.2702 9.48011 38.4833 8.50237 38.9094 7.65483C39.3356 6.80256 39.9369 6.13968 40.7134 5.66619C41.4947 5.18797 42.418 4.94886 43.4833 4.94886C44.3687 4.94886 45.1523 5.11222 45.8342 5.43892C46.5207 5.76089 47.0676 6.2178 47.4748 6.80966C47.882 7.39678 48.114 8.08333 48.1708 8.86932H45.7134C45.614 8.34375 45.3772 7.90578 45.0032 7.5554C44.6339 7.20028 44.1391 7.02273 43.5188 7.02273C42.9933 7.02273 42.5316 7.16477 42.1339 7.44886C41.7362 7.72822 41.426 8.13068 41.2035 8.65625C40.9857 9.18182 40.8768 9.81155 40.8768 10.5455C40.8768 11.2888 40.9857 11.928 41.2035 12.4631C41.4213 12.9934 41.7267 13.4029 42.1197 13.6918C42.5174 13.9759 42.9838 14.1179 43.5188 14.1179C43.8976 14.1179 44.2362 14.0469 44.5344 13.9048C44.8375 13.758 45.0908 13.5473 45.2944 13.2727C45.498 12.9981 45.6377 12.6643 45.7134 12.2713H48.1708C48.1093 13.0431 47.882 13.7273 47.489 14.3239C47.096 14.9157 46.561 15.3797 45.8839 15.7159C45.2068 16.0473 44.4113 16.2131 43.4975 16.2131ZM53.4212 16.2202C52.7299 16.2202 52.1072 16.0971 51.5533 15.8509C51.004 15.5999 50.5684 15.2306 50.2464 14.7429C49.9292 14.2552 49.7706 13.6539 49.7706 12.9389C49.7706 12.3234 49.8842 11.8144 50.1115 11.4119C50.3388 11.0095 50.6489 10.6875 51.0419 10.446C51.4349 10.2045 51.8776 10.0223 52.37 9.89915C52.8672 9.77131 53.3809 9.67898 53.9112 9.62216C54.5504 9.55587 55.0689 9.49669 55.4666 9.4446C55.8643 9.38778 56.1532 9.30256 56.3331 9.18892C56.5178 9.07055 56.6101 8.88826 56.6101 8.64205V8.59943C56.6101 8.06439 56.4515 7.65009 56.1342 7.35653C55.817 7.06297 55.3601 6.91619 54.7635 6.91619C54.1338 6.91619 53.6342 7.0535 53.2649 7.32812C52.9003 7.60275 52.6541 7.92708 52.5263 8.30114L50.1257 7.96023C50.3151 7.29735 50.6276 6.74337 51.0632 6.2983C51.4988 5.84848 52.0315 5.51231 52.6612 5.28977C53.291 5.0625 53.987 4.94886 54.7493 4.94886C55.2749 4.94886 55.7981 5.01042 56.3189 5.13352C56.8397 5.25663 57.3156 5.46023 57.7464 5.74432C58.1773 6.02367 58.523 6.40483 58.7834 6.88778C59.0485 7.37074 59.1811 7.97443 59.1811 8.69886V16H56.7095V14.5014H56.6243C56.468 14.8045 56.2479 15.0885 55.9638 15.3537C55.6844 15.6141 55.3317 15.8248 54.9055 15.9858C54.4841 16.142 53.9893 16.2202 53.4212 16.2202ZM54.0888 14.331C54.6049 14.331 55.0523 14.2292 55.4311 14.0256C55.8099 13.8172 56.1011 13.5426 56.3047 13.2017C56.513 12.8608 56.6172 12.4891 56.6172 12.0866V10.8011C56.5367 10.8674 56.3994 10.929 56.2053 10.9858C56.0159 11.0426 55.8028 11.0923 55.5661 11.1349C55.3293 11.1776 55.0949 11.2154 54.8629 11.2486C54.6309 11.2817 54.4297 11.3101 54.2592 11.3338C53.8757 11.3859 53.5324 11.4711 53.2294 11.5895C52.9264 11.7079 52.6873 11.8736 52.5121 12.0866C52.3369 12.295 52.2493 12.5649 52.2493 12.8963C52.2493 13.3698 52.4221 13.7273 52.7678 13.9688C53.1134 14.2102 53.5537 14.331 54.0888 14.331ZM64.3374 9.60795V16H61.7663V5.09091H64.2237V6.9446H64.3516C64.6025 6.33381 65.0026 5.84848 65.5518 5.48864C66.1058 5.12879 66.79 4.94886 67.6044 4.94886C68.3572 4.94886 69.013 5.10985 69.5717 5.43182C70.1352 5.75379 70.5708 6.22017 70.8786 6.83097C71.1911 7.44176 71.3449 8.18276 71.3402 9.05398V16H68.7692V9.4517C68.7692 8.72254 68.5798 8.15199 68.201 7.74006C67.8269 7.32812 67.3085 7.12216 66.6456 7.12216C66.1958 7.12216 65.7957 7.22159 65.4453 7.42045C65.0997 7.61458 64.8274 7.89631 64.6286 8.26562C64.4344 8.63494 64.3374 9.08239 64.3374 9.60795ZM84.2166 11.2486L74.5007 15.7372V13.2159L81.4041 10.2543L81.326 10.3892V10.0625L81.4041 10.1974L74.5007 7.2358V4.71449L84.2166 9.20312V11.2486Z" fill="white"/>
</svg>
